# Blender v2.79 (sub 0) OBJ File: ''
# www.blender.org
v -1.898785 -0.001175 1.888583
v 1.972199 0.005061 2.032584
v -1.855905 -0.029541 -1.904146
v 1.886712 -0.005194 -1.985026
v -1.971333 -0.026533 -1.649227
v -2.006136 0.003834 -1.248987
v -2.000638 -0.020107 -0.920372
v -1.943986 0.005201 -0.533396
v -1.906205 0.059438 -0.170502
v -1.927578 0.013534 0.202111
v -1.927119 -0.001355 0.637539
v -1.942207 -0.016187 0.931508
v -1.924299 0.008110 1.278515
v -1.904617 0.016812 1.657000
v -1.624852 -0.023995 1.930439
v -1.269352 -0.082557 1.965503
v -0.868656 -0.049233 2.029128
v -0.532875 0.014414 1.972875
v -0.238313 0.016147 1.951782
v 0.137489 0.018715 1.957600
v 0.531533 -0.009754 1.911865
v 0.854599 -0.048977 1.914058
v 1.264576 0.022042 1.923226
v 1.661623 -0.019027 1.969599
v 2.007573 0.021982 1.738420
v 1.959503 0.019963 1.303859
v 1.925802 0.027162 0.914274
v 1.883851 0.051128 0.570543
v 1.921778 0.036421 0.202053
v 1.951172 -0.002743 -0.151119
v 1.936777 -0.018873 -0.530035
v 1.922523 -0.033016 -0.871615
v 1.982063 -0.058750 -1.287930
v 1.989493 0.011251 -1.705174
v 1.620995 -0.019048 -1.950655
v 1.263562 -0.006523 -1.957804
v 0.899919 -0.010695 -1.937746
v 0.485667 -0.050235 -1.903697
v 0.178427 -0.037109 -1.909822
v -0.172260 0.003298 -1.947195
v -0.486364 0.050271 -1.998182
v -0.876488 -0.003659 -1.932816
v -1.210009 -0.086900 -1.917397
v -1.527614 -0.020125 -1.954084
v -1.568530 0.044373 1.649789
v -1.603397 0.062941 1.298261
v -1.684284 0.016433 0.892308
v -1.690671 0.053020 0.577895
v -1.629931 0.039466 0.183661
v -1.564144 0.039667 -0.152239
v -1.591484 0.035613 -0.487229
v -1.624430 0.058038 -0.915529
v -1.585557 -0.030655 -1.225403
v -1.556564 -0.044955 -1.640692
v -1.239013 0.008256 1.594326
v -1.279398 0.063760 1.309018
v -1.293901 0.012959 0.921632
v -1.320231 0.014849 0.524269
v -1.287148 0.001056 0.174850
v -1.261770 -0.049883 -0.152880
v -1.245251 -0.028729 -0.492420
v -1.203907 0.057637 -0.918170
v -1.179702 -0.023737 -1.275174
v -1.202893 -0.084610 -1.620631
v -0.859222 0.012558 1.654180
v -0.936224 0.007663 1.239535
v -0.918885 -0.014265 0.873094
v -0.891840 0.008931 0.469589
v -0.886124 0.025694 0.130038
v -0.852252 -0.011975 -0.257948
v -0.855267 -0.065918 -0.554684
v -0.873745 -0.056957 -0.876902
v -0.838571 -0.008029 -1.278203
v -0.881108 -0.004726 -1.607401
v -0.560713 0.027464 1.648012
v -0.602252 0.005938 1.204039
v -0.602246 0.005648 0.867490
v -0.574066 0.072714 0.524128
v -0.585558 0.044034 0.194481
v -0.522877 0.015103 -0.217092
v -0.519510 -0.029884 -0.493456
v -0.509271 -0.014843 -0.907208
v -0.446811 0.028251 -1.320365
v -0.503607 0.019708 -1.656649
v -0.256213 -0.015463 1.668692
v -0.274169 -0.000982 1.303355
v -0.194986 -0.031871 0.924481
v -0.126964 0.021209 0.617200
v -0.160177 0.031842 0.230893
v -0.141216 -0.004281 -0.219008
v -0.181362 0.006680 -0.536884
v -0.147893 0.002748 -0.985291
v -0.161374 0.007349 -1.317299
v -0.187053 -0.016388 -1.649205
v 0.158967 -0.007487 1.635048
v 0.163537 0.003677 1.310486
v 0.175725 -0.006310 0.993284
v 0.169517 0.001599 0.618151
v 0.161175 0.016248 0.217379
v 0.180888 -0.079102 -0.180245
v 0.184041 0.016626 -0.484689
v 0.246181 0.051581 -0.882505
v 0.189374 0.014986 -1.261582
v 0.217731 -0.038902 -1.641813
v 0.531847 -0.005855 1.616177
v 0.540870 -0.015669 1.257765
v 0.530171 0.044034 0.949023
v 0.527184 0.005986 0.565811
v 0.512563 -0.013883 0.200858
v 0.529242 -0.073467 -0.154120
v 0.603508 -0.019944 -0.521839
v 0.633999 0.021211 -0.920181
v 0.539704 -0.001243 -1.269626
v 0.513382 -0.061874 -1.606442
v 0.908339 0.008957 1.680792
v 0.930545 -0.027628 1.330310
v 0.917349 0.004339 0.929841
v 0.879141 -0.006330 0.559753
v 0.864573 -0.001810 0.199881
v 0.888953 -0.020432 -0.164453
v 0.935348 -0.011140 -0.533869
v 0.902609 -0.015509 -0.902093
v 0.910058 -0.020814 -1.275948
v 0.883406 -0.022969 -1.624971
v 1.317968 0.096053 1.641331
v 1.307771 0.051249 1.288124
v 1.287668 0.047261 0.898723
v 1.265496 0.025810 0.525227
v 1.305668 0.013429 0.146780
v 1.284745 -0.009742 -0.156302
v 1.338009 -0.010164 -0.500854
v 1.264087 -0.023738 -0.927396
v 1.279093 -0.069766 -1.315515
v 1.222862 -0.040369 -1.639958
v 1.666927 0.011244 1.653227
v 1.649458 0.012877 1.268232
v 1.656355 0.008826 0.885700
v 1.626769 -0.005108 0.533291
v 1.627155 -0.003623 0.174977
v 1.573468 -0.020293 -0.154372
v 1.637926 -0.043852 -0.553581
v 1.641110 -0.024609 -0.925959
v 1.666361 -0.036174 -1.291108
v 1.640090 0.003182 -1.631862
vn -0.0339 0.9977 0.0578
vn -0.0457 0.9974 -0.0555
vn -0.0119 0.9975 -0.0688
vn 0.0627 0.9980 -0.0096
vn 0.0194 0.9991 0.0364
vn 0.0566 0.9980 -0.0257
vn -0.0399 0.9990 0.0194
vn 0.0969 0.9914 0.0875
vn -0.0587 0.9944 -0.0880
vn -0.1614 0.9867 0.0206
vn 0.0078 0.9996 0.0249
vn -0.1291 0.9915 -0.0146
vn 0.1149 0.9903 0.0775
vn 0.0094 0.9959 0.0896
vn 0.0883 0.9961 -0.0054
vn 0.0615 0.9980 0.0156
vn 0.0587 0.9968 -0.0545
vn -0.0164 0.9994 0.0293
vn -0.0073 0.9999 -0.0038
vn -0.0184 0.9977 -0.0656
vn -0.0157 0.9971 0.0746
vn -0.0290 0.9980 0.0548
vn -0.0283 0.9977 0.0612
vn 0.0548 0.9756 0.2124
vn -0.0636 0.9940 0.0883
vn 0.0713 0.9946 0.0754
vn -0.0675 0.9971 -0.0345
vn -0.1597 0.9861 -0.0461
vn -0.0601 0.9981 -0.0067
vn -0.1276 0.9917 -0.0144
vn -0.1842 0.9808 0.0640
vn -0.0431 0.9977 0.0533
vn -0.1086 0.9931 0.0448
vn 0.0295 0.9995 0.0078
vn -0.0055 0.9999 -0.0134
vn 0.0697 0.9975 -0.0069
vn -0.1124 0.9924 -0.0495
vn -0.0297 0.9975 -0.0636
vn -0.2036 0.9788 0.0234
vn 0.0070 0.9973 -0.0732
vn 0.0282 0.9872 -0.1568
vn 0.0277 0.9739 0.2252
vn 0.0222 0.9858 0.1665
vn 0.0982 0.9951 0.0113
vn 0.0485 0.9972 -0.0571
vn 0.0575 0.9983 0.0051
vn 0.0554 0.9969 -0.0558
vn 0.1431 0.9897 -0.0097
vn 0.1025 0.9922 0.0711
vn 0.1366 0.9899 -0.0372
vn 0.0004 0.9950 -0.1002
vn -0.0586 0.9959 0.0689
vn 0.0791 0.9817 0.1728
vn 0.0491 0.9984 -0.0284
vn 0.0043 1.0000 0.0008
vn -0.0732 0.9966 0.0378
vn -0.0719 0.9966 -0.0384
vn 0.0959 0.9946 -0.0402
vn -0.0579 0.9917 -0.1145
vn 0.0243 0.9990 -0.0371
vn 0.0808 0.9964 0.0255
vn -0.0254 0.9990 0.0371
vn -0.1318 0.9786 0.1579
vn 0.0150 0.9992 -0.0352
vn -0.0118 0.9969 0.0778
vn -0.0307 0.9978 -0.0584
vn -0.0047 0.9929 -0.1192
vn -0.0722 0.9961 -0.0508
vn -0.0794 0.9951 0.0582
vn -0.0667 0.9959 0.0608
vn 0.0424 0.9989 -0.0175
vn 0.0316 0.9995 0.0058
vn 0.0280 0.9991 -0.0321
vn 0.0019 0.9982 0.0599
vn 0.0509 0.9952 0.0833
vn -0.0620 0.9962 0.0618
vn 0.0553 0.9978 -0.0370
vn 0.0624 0.9978 -0.0210
vn -0.0751 0.9966 0.0317
vn -0.0522 0.9986 0.0016
vn -0.0077 0.9998 0.0150
vn 0.0193 0.9961 -0.0857
vn -0.0093 0.9938 -0.1104
vn -0.0004 0.9999 -0.0115
vn 0.0045 0.9999 -0.0115
vn -0.0598 0.9976 0.0342
vn 0.0746 0.9936 -0.0852
vn 0.0411 0.9877 0.1507
vn 0.0003 1.0000 -0.0013
vn 0.0053 0.9944 -0.1054
vn 0.0396 0.9983 -0.0429
vn 0.0718 0.9974 -0.0076
vn 0.0169 0.9998 0.0090
vn 0.0256 0.9984 0.0506
vn -0.0054 0.9978 0.0661
vn 0.0096 0.9999 0.0112
vn 0.0117 0.9984 -0.0544
vn 0.0140 0.9925 -0.1216
vn 0.1073 0.9933 0.0437
vn -0.0441 0.9989 0.0129
vn 0.0306 0.9953 0.0915
vn 0.0287 0.9934 -0.1109
vn -0.0716 0.9836 0.1656
vn -0.1018 0.9947 -0.0132
vn -0.0316 0.9991 0.0280
vn -0.0187 0.9996 -0.0201
vn -0.0490 0.9976 -0.0497
vn -0.0746 0.9972 -0.0052
vn 0.0602 0.9981 0.0068
vn 0.0962 0.9951 0.0206
vn 0.0765 0.9967 -0.0257
vn -0.0222 0.9776 0.2092
vn -0.1279 0.9895 0.0668
vn 0.0107 0.9969 0.0774
vn -0.0390 0.9977 -0.0545
vn -0.0038 0.9996 -0.0269
vn -0.0002 0.9994 -0.0340
vn 0.0105 0.9987 -0.0502
vn 0.0065 0.9994 -0.0349
vn -0.0136 0.9999 -0.0011
vn 0.0327 0.9982 -0.0503
vn 0.0731 0.9952 0.0641
vn 0.0545 0.9984 -0.0167
vn -0.0472 0.9985 -0.0273
vn -0.0255 0.9989 -0.0382
vn 0.0108 0.9988 -0.0481
vn 0.0486 0.9984 -0.0265
vn 0.0105 0.9997 -0.0228
vn 0.0039 1.0000 -0.0038
vn 0.0215 0.9998 0.0037
vn 0.0039 0.9965 0.0839
vn -0.0544 0.9977 0.0404
vn -0.0262 0.9996 0.0103
vn -0.0608 0.9975 0.0352
vn -0.0029 1.0000 -0.0058
vn -0.1787 0.9838 -0.0166
vn -0.1436 0.9871 -0.0706
vn -0.0710 0.9952 -0.0670
vn 0.0113 0.9999 -0.0107
vn -0.0088 0.9993 0.0364
vn 0.0558 0.9973 0.0476
vn -0.0111 0.9983 0.0568
vn -0.0867 0.9951 0.0468
vn -0.0802 0.9960 -0.0387
s 1
f 144//1 4//2 35//3
f 54//4 3//5 5//6
f 54//4 43//7 44//8
f 64//9 42//10 43//7
f 84//11 42//10 74//12
f 84//11 40//13 41//14
f 94//15 39//16 40//13
f 104//17 38//18 39//16
f 124//19 38//18 114//20
f 134//21 37//22 124//19
f 144//1 36//23 134//21
f 15//24 14//25 1//26
f 14//25 46//27 13//28
f 13//28 47//29 12//30
f 47//29 11//31 12//30
f 48//32 10//33 11//31
f 49//34 9//35 10//33
f 9//35 51//36 8//37
f 8//37 52//38 7//39
f 52//38 6//40 7//39
f 53//41 5//6 6//40
f 16//42 45//43 15//24
f 45//43 56//44 46//27
f 46//27 57//45 47//29
f 47//29 58//46 48//32
f 58//46 49//34 48//32
f 59//47 50//48 49//34
f 50//48 61//49 51//36
f 61//49 52//38 51//36
f 62//50 53//41 52//38
f 63//51 54//4 53//41
f 16//42 65//52 55//53
f 55//53 66//54 56//44
f 66//54 57//45 56//44
f 67//55 58//46 57//45
f 68//56 59//47 58//46
f 69//57 60//58 59//47
f 70//59 61//49 60//58
f 71//60 62//50 61//49
f 72//61 63//51 62//50
f 63//51 74//12 64//9
f 18//62 65//52 17//63
f 65//52 76//64 66//54
f 76//64 67//55 66//54
f 77//65 68//56 67//55
f 68//56 79//66 69//57
f 69//57 80//67 70//59
f 70//59 81//68 71//60
f 71//60 82//69 72//61
f 82//69 73//70 72//61
f 73//70 84//11 74//12
f 18//62 85//71 75//72
f 75//72 86//73 76//64
f 76//64 87//74 77//65
f 77//65 88//75 78//76
f 78//76 89//77 79//66
f 89//77 80//67 79//66
f 90//78 81//68 80//67
f 91//79 82//69 81//68
f 92//80 83//81 82//69
f 83//81 94//15 84//11
f 20//82 85//71 19//83
f 95//84 86//73 85//71
f 96//85 87//74 86//73
f 97//86 88//75 87//74
f 88//75 99//87 89//77
f 99//87 90//78 89//77
f 90//78 101//88 91//79
f 91//79 102//89 92//80
f 92//80 103//90 93//91
f 93//91 104//17 94//15
f 21//92 95//84 20//82
f 105//93 96//85 95//84
f 106//94 97//86 96//85
f 107//95 98//96 97//86
f 108//97 99//87 98//96
f 109//98 100//99 99//87
f 110//100 101//88 100//99
f 111//101 102//89 101//88
f 102//89 113//102 103//90
f 103//90 114//20 104//17
f 22//103 105//93 21//92
f 105//93 116//104 106//94
f 106//94 117//105 107//95
f 107//95 118//106 108//97
f 108//97 119//107 109//98
f 119//107 110//100 109//98
f 120//108 111//101 110//100
f 111//101 122//109 112//110
f 112//110 123//111 113//102
f 113//102 124//19 114//20
f 23//112 115//113 22//103
f 125//114 116//104 115//113
f 126//115 117//105 116//104
f 127//116 118//106 117//105
f 128//117 119//107 118//106
f 129//118 120//108 119//107
f 130//119 121//120 120//108
f 121//120 132//121 122//109
f 132//121 123//111 122//109
f 123//111 134//21 124//19
f 23//112 135//122 125//114
f 125//114 136//123 126//115
f 136//123 127//116 126//115
f 127//116 138//124 128//117
f 128//117 139//125 129//118
f 129//118 140//126 130//119
f 140//126 131//127 130//119
f 141//128 132//121 131//127
f 142//129 133//130 132//121
f 133//130 144//1 134//21
f 24//131 25//132 135//122
f 135//122 26//133 136//123
f 136//123 27//134 137//135
f 137//135 28//136 138//124
f 138//124 29//137 139//125
f 139//125 30//138 140//126
f 30//138 141//128 140//126
f 141//128 32//139 142//129
f 32//139 143//140 142//129
f 33//141 144//1 143//140
f 144//1 34//142 4//2
f 54//4 44//8 3//5
f 54//4 64//9 43//7
f 64//9 74//12 42//10
f 84//11 41//14 42//10
f 84//11 94//15 40//13
f 94//15 104//17 39//16
f 104//17 114//20 38//18
f 124//19 37//22 38//18
f 134//21 36//23 37//22
f 144//1 35//3 36//23
f 15//24 45//43 14//25
f 14//25 45//43 46//27
f 13//28 46//27 47//29
f 47//29 48//32 11//31
f 48//32 49//34 10//33
f 49//34 50//48 9//35
f 9//35 50//48 51//36
f 8//37 51//36 52//38
f 52//38 53//41 6//40
f 53//41 54//4 5//6
f 16//42 55//53 45//43
f 45//43 55//53 56//44
f 46//27 56//44 57//45
f 47//29 57//45 58//46
f 58//46 59//47 49//34
f 59//47 60//58 50//48
f 50//48 60//58 61//49
f 61//49 62//50 52//38
f 62//50 63//51 53//41
f 63//51 64//9 54//4
f 16//42 17//63 65//52
f 55//53 65//52 66//54
f 66//54 67//55 57//45
f 67//55 68//56 58//46
f 68//56 69//57 59//47
f 69//57 70//59 60//58
f 70//59 71//60 61//49
f 71//60 72//61 62//50
f 72//61 73//70 63//51
f 63//51 73//70 74//12
f 18//62 75//72 65//52
f 65//52 75//72 76//64
f 76//64 77//65 67//55
f 77//65 78//76 68//56
f 68//56 78//76 79//66
f 69//57 79//66 80//67
f 70//59 80//67 81//68
f 71//60 81//68 82//69
f 82//69 83//81 73//70
f 73//70 83//81 84//11
f 18//62 19//83 85//71
f 75//72 85//71 86//73
f 76//64 86//73 87//74
f 77//65 87//74 88//75
f 78//76 88//75 89//77
f 89//77 90//78 80//67
f 90//78 91//79 81//68
f 91//79 92//80 82//69
f 92//80 93//91 83//81
f 83//81 93//91 94//15
f 20//82 95//84 85//71
f 95//84 96//85 86//73
f 96//85 97//86 87//74
f 97//86 98//96 88//75
f 88//75 98//96 99//87
f 99//87 100//99 90//78
f 90//78 100//99 101//88
f 91//79 101//88 102//89
f 92//80 102//89 103//90
f 93//91 103//90 104//17
f 21//92 105//93 95//84
f 105//93 106//94 96//85
f 106//94 107//95 97//86
f 107//95 108//97 98//96
f 108//97 109//98 99//87
f 109//98 110//100 100//99
f 110//100 111//101 101//88
f 111//101 112//110 102//89
f 102//89 112//110 113//102
f 103//90 113//102 114//20
f 22//103 115//113 105//93
f 105//93 115//113 116//104
f 106//94 116//104 117//105
f 107//95 117//105 118//106
f 108//97 118//106 119//107
f 119//107 120//108 110//100
f 120//108 121//120 111//101
f 111//101 121//120 122//109
f 112//110 122//109 123//111
f 113//102 123//111 124//19
f 23//112 125//114 115//113
f 125//114 126//115 116//104
f 126//115 127//116 117//105
f 127//116 128//117 118//106
f 128//117 129//118 119//107
f 129//118 130//119 120//108
f 130//119 131//127 121//120
f 121//120 131//127 132//121
f 132//121 133//130 123//111
f 123//111 133//130 134//21
f 23//112 24//131 135//122
f 125//114 135//122 136//123
f 136//123 137//135 127//116
f 127//116 137//135 138//124
f 128//117 138//124 139//125
f 129//118 139//125 140//126
f 140//126 141//128 131//127
f 141//128 142//129 132//121
f 142//129 143//140 133//130
f 133//130 143//140 144//1
f 24//131 2//143 25//132
f 135//122 25//132 26//133
f 136//123 26//133 27//134
f 137//135 27//134 28//136
f 138//124 28//136 29//137
f 139//125 29//137 30//138
f 30//138 31//144 141//128
f 141//128 31//144 32//139
f 32//139 33//141 143//140
f 33//141 34//142 144//1
